<svg xmlns="http://www.w3.org/2000/svg" width="37.958" height="40.771" viewBox="0 0 37.958 40.771">
  <g id="Group_3388" data-name="Group 3388" transform="translate(0)">
    <path id="Path_8807" data-name="Path 8807" d="M743.669,453.029c-.484,2.517-1.624,3.61-3.758,3.643-2.352.037-3.434-.929-4.059-3.62-1.161-.269-1.162-.269-1.163-1.487q0-1.748,0-3.5a1.453,1.453,0,0,1,.018-.565c.621-1.34-.367-1.943-1.182-2.624a6.052,6.052,0,0,0-.544-.356,12.281,12.281,0,0,1,7.742-22.481,12.637,12.637,0,0,1,11.194,10.594,11.964,11.964,0,0,1-5.471,11.969,8.044,8.044,0,0,0-1.456,1.265c-.339.386-.661.868-.2,1.441.111.138.055.42.056.635q.006,1.829,0,3.659C744.848,452.82,744.847,452.82,743.669,453.029Zm-.512-6.2a5.289,5.289,0,0,1,2.532-3.316A10.826,10.826,0,0,0,750.36,431.5a11.41,11.41,0,0,0-10.313-8.195,10.965,10.965,0,0,0-6.65,19.891c1.368.956,2.611,1.926,2.977,3.637Zm.355,1.378h-7.47v3.358h7.47Zm-1.282,4.815H737.28c.074,1.621.95,2.376,2.631,2.341A2.134,2.134,0,0,0,742.229,453.025Z" transform="translate(-720.768 -415.902)" fill="#fff"/>
    <path id="Path_8808" data-name="Path 8808" d="M705.428,443.194c-.378.18-.777.528-.977.438a17.529,17.529,0,0,1-2.448-1.4.612.612,0,0,1,.593-1.04c.821.4,1.6.877,2.386,1.352C705.123,442.631,705.19,442.838,705.428,443.194Z" transform="translate(-699.284 -431.97)" fill="#fff"/>
    <path id="Path_8809" data-name="Path 8809" d="M883.965,443.7c-.271-.245-.505-.37-.592-.561-.073-.16-.049-.515.06-.584.859-.549,1.738-1.069,2.64-1.545.126-.066.467.113.6.27.107.128.139.517.053.578C885.837,442.484,884.917,443.07,883.965,443.7Z" transform="translate(-851.265 -431.819)" fill="#fff"/>
    <path id="Path_8810" data-name="Path 8810" d="M704.788,543.708a2.888,2.888,0,0,1,.287.8.9.9,0,0,1-.247.694,22.805,22.805,0,0,1-2.308,1.327.76.76,0,0,1-.7-.151c-.136-.15-.186-.631-.086-.7C702.6,545.067,703.515,544.514,704.788,543.708Z" transform="translate(-699.158 -517.829)" fill="#fff"/>
    <path id="Path_8811" data-name="Path 8811" d="M886.951,547.852a.634.634,0,0,1-.905.639,21.83,21.83,0,0,1-2.306-1.34.8.8,0,0,1-.2-.749c.087-.192.538-.423.689-.349.868.427,1.7.93,2.528,1.431C886.868,547.554,886.9,547.758,886.951,547.852Z" transform="translate(-851.413 -519.781)" fill="#fff"/>
    <path id="Path_8812" data-name="Path 8812" d="M688.111,498.355a4.738,4.738,0,0,1-1.2-.025c-.277-.074-.492-.38-.734-.583.222-.227.426-.627.668-.651a12.856,12.856,0,0,1,2.5,0c.247.024.459.41.687.63-.234.21-.438.527-.709.6A4.646,4.646,0,0,1,688.111,498.355Z" transform="translate(-686.173 -478.748)" fill="#fff"/>
    <path id="Path_8813" data-name="Path 8813" d="M898.255,498.5a5.04,5.04,0,0,1-1.2-.025c-.254-.064-.607-.353-.623-.564a.837.837,0,0,1,.518-.65,18.5,18.5,0,0,1,2.737,0c.2.014.534.412.506.586a.915.915,0,0,1-.568.618,6.21,6.21,0,0,1-1.365.029Z" transform="translate(-862.232 -478.89)" fill="#fff"/>
    <path id="Path_8814" data-name="Path 8814" d="M800.18,386.538a4.951,4.951,0,0,1-.026,1.212c-.065.25-.378.436-.58.651-.228-.216-.63-.415-.653-.65a13.975,13.975,0,0,1,0-2.514c.02-.23.377-.431.578-.646.229.216.584.4.656.654A4.977,4.977,0,0,1,800.18,386.538Z" transform="translate(-780.534 -384.591)" fill="#fff"/>
    <path id="Path_8815" data-name="Path 8815" d="M743.5,399.659a1.972,1.972,0,0,1,.494.428,14.4,14.4,0,0,1,1.119,1.975c.113.261-.082.655-.137.989-.317-.113-.762-.131-.927-.355a14.733,14.733,0,0,1-1.193-2.026C742.582,400.146,742.848,399.672,743.5,399.659Z" transform="translate(-733.546 -397.208)" fill="#fff"/>
    <path id="Path_8816" data-name="Path 8816" d="M848.261,403.548c-.55-.1-.8-.439-.585-.881a19.6,19.6,0,0,1,1.388-2.378.833.833,0,0,1,.775-.108.72.72,0,0,1,.264.661c-.439.865-.942,1.7-1.449,2.525C848.587,403.478,848.375,403.5,848.261,403.548Z" transform="translate(-821.345 -397.606)" fill="#fff"/>
    <path id="Path_8817" data-name="Path 8817" d="M762.663,494.758c-.68-.078-1.247-.118-1.806-.211-2.92-.484-4.485-2.212-4.925-5.417-.329-2.4.067-2.785,2.475-2.466a5.876,5.876,0,0,1,4.783,2.924c1.492-3.627,4.457-4.395,7.847-4.4.774,0,1.163.317,1.108,1.124-.042.62,0,1.25-.077,1.864-.524,3.982-2.636,6.026-6.618,6.438-.457.047-.915.081-1.484.131,0,.855,0,1.713,0,2.571,0,.5-.078.989-.7.967-.573-.02-.615-.5-.611-.962C762.669,496.489,762.663,495.654,762.663,494.758Zm8.111-8.2c-4.308-.382-7.57,2.96-6.676,6.778A5.826,5.826,0,0,0,770.773,486.555Zm-8.206,6.772c.368-3.365-2.409-6.071-5.362-5.286C757.076,491.493,759.182,493.59,762.568,493.327Z" transform="translate(-744.503 -468.83)" fill="#fff"/>
    <path id="Path_8818" data-name="Path 8818" d="M832.933,455.754a2.353,2.353,0,0,1,.6.342c.68.767,1.372,1.528,1.971,2.357a.992.992,0,0,1-.091.963c-.359.341-.7.085-1-.289-.564-.722-1.2-1.386-1.767-2.107a1.166,1.166,0,0,1-.23-.782C832.445,456.065,832.74,455.926,832.933,455.754Z" transform="translate(-808.633 -444.18)" fill="#fff"/>
    <path id="Path_8819" data-name="Path 8819" d="M816.4,448.979l-1.635-1.275c.22-.222.415-.6.664-.637.622-.1,1.669.571,1.6.967C816.976,448.31,816.7,448.545,816.4,448.979Z" transform="translate(-793.851 -436.898)" fill="#fff"/>
  </g>
</svg>
