<svg xmlns="http://www.w3.org/2000/svg" width="13.891" height="10.062" viewBox="0 0 13.891 10.062">
  <path id="Path_1206" data-name="Path 1206" d="M883.381,184.971a4.032,4.032,0,0,1-.507.858q-3.69,3.727-7.413,7.422a1.194,1.194,0,0,1-1.868.013q-1.842-1.808-3.652-3.65a1.207,1.207,0,0,1-.059-1.831,1.252,1.252,0,0,1,1.838.1c.79.773,1.58,1.546,2.339,2.349.337.357.552.377.912.011,1.995-2.028,4.015-4.03,6.025-6.042a1.3,1.3,0,0,1,1.5-.458A1.485,1.485,0,0,1,883.381,184.971Z" transform="translate(-869.49 -183.646)" fill="#dd131a"/>
</svg>
