<svg id="Group_377" data-name="Group 377" xmlns="http://www.w3.org/2000/svg" width="28.839" height="21.622" viewBox="0 0 28.839 21.622">
  <path id="Path_1184" data-name="Path 1184" d="M24.208,53.162H4.632A4.637,4.637,0,0,1,0,48.53V36.172A4.637,4.637,0,0,1,4.632,31.54H24.208a4.637,4.637,0,0,1,4.632,4.632V48.53A4.637,4.637,0,0,1,24.208,53.162ZM4.632,32.894a3.281,3.281,0,0,0-3.277,3.277V48.53a3.281,3.281,0,0,0,3.277,3.278H24.208a3.281,3.281,0,0,0,3.277-3.278V36.172a3.281,3.281,0,0,0-3.277-3.277Z" transform="translate(0 -31.54)" fill="#ccc"/>
  <path id="Path_1185" data-name="Path 1185" d="M29.3,63.372,39.69,73.493c.645.629,1.636-.36.99-.99L30.294,62.383c-.645-.629-1.636.36-.99.989Z" transform="translate(-25.765 -58.676)" fill="#ccc"/>
  <path id="Path_1186" data-name="Path 1186" d="M121.074,73.493l10.386-10.12c.646-.63-.344-1.619-.99-.99L120.084,72.5c-.646.63.344,1.619.99.99Z" transform="translate(-106.159 -58.676)" fill="#ccc"/>
  <path id="Path_1187" data-name="Path 1187" d="M157.988,129.666l-6.911-6.554c-.653-.619-1.644.368-.99.99L157,130.655c.653.619,1.644-.368.99-.99Z" transform="translate(-132.726 -112.461)" fill="#ccc"/>
  <path id="Path_1188" data-name="Path 1188" d="M31.139,130.651,38.05,124.1c.655-.621-.336-1.609-.99-.99l-6.911,6.554c-.655.621.336,1.61.99.99Z" transform="translate(-26.51 -112.458)" fill="#ccc"/>
</svg>
