<svg xmlns="http://www.w3.org/2000/svg" width="18.439" height="12.706" viewBox="0 0 18.439 12.706">
  <g id="Group_14" data-name="Group 14" transform="translate(-3289.252 -260.956)">
    <path id="Path_28" data-name="Path 28" d="M3299.224,260.958q3.967,0,7.935,0a1.168,1.168,0,0,1,1.144.662.312.312,0,0,1-.118.477q-4.386,2.876-8.76,5.769a.349.349,0,0,1-.45,0q-4.36-2.882-8.73-5.748a.338.338,0,0,1-.125-.533,1.179,1.179,0,0,1,1.132-.623Q3295.238,260.964,3299.224,260.958Z" transform="translate(-0.731)" fill="#fff"/>
    <path id="Path_29" data-name="Path 29" d="M3299.191,366.269q-3.984,0-7.969,0a1.156,1.156,0,0,1-1.136-.672c-.093-.189-.09-.315.115-.444,2.288-1.438,4.569-2.888,6.858-4.323a.426.426,0,0,1,.369.014c.462.28.911.582,1.359.885a.654.654,0,0,0,.8,0c.438-.3.889-.573,1.32-.878a.366.366,0,0,1,.477,0q3.376,2.146,6.761,4.275a.317.317,0,0,1,.135.5,1.165,1.165,0,0,1-1.121.642q-3.3-.006-6.6,0Z" transform="translate(-0.719 -92.608)" fill="#fff"/>
    <path id="Path_30" data-name="Path 30" d="M3289.252,301.63v-8.018l6.21,4.092Z" transform="translate(0 -30.299)" fill="#fff"/>
    <path id="Path_31" data-name="Path 31" d="M3458.689,297.694l6.212-4.093v8.019Z" transform="translate(-157.21 -30.289)" fill="#fff"/>
  </g>
</svg>
