<svg xmlns="http://www.w3.org/2000/svg" width="75.903" height="67.194" viewBox="0 0 75.903 67.194">
  <g id="Group_68" data-name="Group 68" transform="translate(-2496 -558)">
    <path id="Path_60" data-name="Path 60" d="M959.977,422.992c3.209,0,6.488-.424,9.616.082a12.562,12.562,0,0,1,9.447,17.734q-1.657,3.8-3.489,7.528a2.317,2.317,0,0,0,.129,2.557,18.438,18.438,0,0,1-5.811,25.263,5.236,5.236,0,0,1-2.476.716c-2.32.1-4.646.026-6.97.036-.881,0-1.756-.21-1.557-1.237a2.011,2.011,0,0,1,1.528-1.1c2.168-.127,4.35,0,6.522-.084a4.316,4.316,0,0,0,2.173-.673A16.173,16.173,0,1,0,945.4,453.275c-.222.441-.325,1.022-.674,1.3-.392.31-1.126.605-1.477.432a1.553,1.553,0,0,1-.539-1.421,10.7,10.7,0,0,1,1.452-2.9,2.04,2.04,0,0,0,.12-2.41c-1.176-2.393-2.287-4.82-3.372-7.256a12.725,12.725,0,0,1,11.8-18.2c2.423-.009,4.846,0,7.268,0Zm13.351,24.674a92.3,92.3,0,0,0,4.039-9.327,10.212,10.212,0,0,0-9.644-13.121q-7.789-.115-15.581,0a10.264,10.264,0,0,0-9.532,13.559c1.036,2.955,2.542,5.744,3.883,8.715a7.671,7.671,0,0,1,.927-.746c1.38-.763,1.385-1.7.659-3.012a49.894,49.894,0,0,1-2.5-5.372c-1.85-4.555,1.189-9.815,5.988-10.125,3.547-.228,7.12-.084,10.681-.041a1.629,1.629,0,0,1,1.167.686,1.209,1.209,0,0,1-.173,1.174,2.537,2.537,0,0,1-1.475.467c-3.165.042-6.333-.033-9.5.043a4.906,4.906,0,0,0-4.562,6.584c.889,2.4,2.091,4.681,3.179,7.071a18.948,18.948,0,0,1,18.085.066c1.106-2.445,2.292-4.729,3.187-7.123a4.93,4.93,0,0,0-4.524-6.611,4.715,4.715,0,0,1-1.613-.064c-.494-.225-.836-.782-1.244-1.194.436-.376.843-1.034,1.313-1.083,2.933-.306,5.519.473,7.313,2.973a7.283,7.283,0,0,1,.6,7.853c-1.031,2.176-2.014,4.375-3.026,6.583Z" transform="translate(1591.725 135.184)" fill="#dd131a"/>
    <path id="Path_61" data-name="Path 61" d="M912.386,551.92a20.138,20.138,0,0,1-8.685,15.41c-3.479,2.467-7.2,3.071-11.155,1.021a47.042,47.042,0,0,0-4.706-2.167c-4.924-1.9-6.794-5.8-6.924-10.708a27.352,27.352,0,0,1,.737-5.7c.157-.83.041-1.256-.729-1.632-1.33-.649-2.609-1.4-3.908-2.115-2.164-1.189-2.7-2.743-1.751-5.068,1.145-2.8,3.1-3.51,5.731-2.071,1.3.711,2.626,1.378,3.892,2.143a1.175,1.175,0,0,0,1.755-.274,14.413,14.413,0,0,1,7.626-4.571,8.551,8.551,0,0,1,5.5.573c1.794.825,3.584,1.657,5.38,2.479C910.382,541.632,912.463,544.939,912.386,551.92Zm-2.292-1.046c-.04-.656-.054-1.051-.088-1.445-.263-3.045-1.153-5.8-4.147-7.191-3.062-1.419-5.847-.341-8.263,1.6-5.32,4.269-7.776,9.833-7,16.681.674,5.969,6.212,8.542,11.23,5.225C907.232,562.168,909.665,556.938,910.094,550.874Zm-21.218,12.945c-3.153-9.521,2.644-20.88,11.285-24.166-3.246-2.1-6.394-1.6-9.27.529a18.032,18.032,0,0,0-7.6,16.048C883.458,560.367,885.607,563.05,888.877,563.819Zm-4.483-20.345c-1.644-.908-3.295-1.766-4.887-2.722-.915-.549-1.407-.094-1.76.607-.378.751-1.028,1.678.024,2.33,1.6.993,3.3,1.832,4.976,2.746Z" transform="translate(1637.354 55.606)" fill="#dd131a"/>
    <path id="Path_62" data-name="Path 62" d="M839.7,498.42a7.64,7.64,0,0,0-8.207-.312,18.185,18.185,0,0,0-8.532,18.782,7.532,7.532,0,0,0,5.358,5.8c-.274-1.249-.542-2.377-.761-3.513a3.39,3.39,0,0,1-.122-1.605,5.954,5.954,0,0,1,1.088-1.474c.415.445,1.039.826,1.2,1.349.331,1.073.3,2.258.619,3.336,1.3,4.37,4.892,6.136,9.154,4.542.819-.307,1.61-.521,2.011.448.448,1.084-.392,1.5-1.22,1.806a9.3,9.3,0,0,1-7.489-.126c-1.875-.888-3.725-1.844-5.656-2.591-4.544-1.759-6.628-5.314-6.8-9.878-.306-8.213,3.024-14.7,10.13-19.006a9.193,9.193,0,0,1,8.7-.489c2.362,1.005,4.7,2.069,6.992,3.231a9.971,9.971,0,0,1,5.438,7.522c.163.9.171,1.8-.95,1.973-1.037.159-1.233-.632-1.391-1.5-.767-4.2-3.756-6.855-7.421-6.252a12.19,12.19,0,0,0-4.825,2.064c-3.494,2.452-5.473,6.027-6.639,10.079-.055.19-.072.39-.124.58-.209.776-.555,1.449-1.516,1.229s-1-.964-.8-1.76c1.375-5.624,4.208-10.2,9.4-13.077C838.062,499.169,838.835,498.839,839.7,498.42Z" transform="translate(1675.675 84.685)" fill="#dd131a"/>
    <path id="Path_63" data-name="Path 63" d="M987.9,520.9c5.4-.016,9.1,3.489,9.426,8.21a8.694,8.694,0,0,1-7.423,8.971c-.888.135-1.954.3-2.167-.9-.222-1.25.789-1.32,1.729-1.45a6.251,6.251,0,1,0-6.234-9.249c-.438.741-.824,1.658-1.883,1.074-1.1-.609-.617-1.533-.153-2.309A8.248,8.248,0,0,1,987.9,520.9Z" transform="translate(1562.911 66.205)" fill="#dd131a"/>
  </g>
</svg>
