<svg id="Group_3389" data-name="Group 3389" xmlns="http://www.w3.org/2000/svg" width="34.407" height="30.984" viewBox="0 0 34.407 30.984">
  <path id="Path_1212" data-name="Path 1212" d="M1866.056-20.8a2.706,2.706,0,0,1-4.538-1.811,2.879,2.879,0,0,1-2.362-.347A2.665,2.665,0,0,1,1858-25.037a2.809,2.809,0,0,1-2.755-.632,2.689,2.689,0,0,1-.685-2.716c-2.518-.431-3.567-3.162-1.133-5.252-.259-.2-.524-.37-.753-.58-.281-.258-.626-.56-.217-.948.363-.345.654-.049.906.22.214.228.414.468.749.851.389-.456.694-.836,1.024-1.193a2.555,2.555,0,0,1,2.978-.784,2.524,2.524,0,0,1,1.687,2.569.868.868,0,0,0,.038.183,2.79,2.79,0,0,1,3,2.986c2.288.166,2.922,1.412,2.99,3.062a2.961,2.961,0,0,1,2.837,1.611,9.933,9.933,0,0,0,1.695,1.716A1.572,1.572,0,0,0,1872.6-24a1.561,1.561,0,0,0-.009-2.238c-1.23-1.271-2.494-2.51-3.744-3.762-.126-.127-.315-.236-.362-.388a2.875,2.875,0,0,1-.044-.716,2.754,2.754,0,0,1,.716.014c.151.042.261.234.388.36q2.067,2.066,4.135,4.132a1.633,1.633,0,0,0,2.484.162,1.653,1.653,0,0,0-.208-2.436q-2.109-2.12-4.227-4.229c-.111-.111-.282-.2-.32-.335a4.337,4.337,0,0,1-.087-.773,2.083,2.083,0,0,1,.762.067,2.891,2.891,0,0,1,.629.6c1.14,1.14,2.276,2.284,3.422,3.419a1.643,1.643,0,0,0,2.436.154,1.642,1.642,0,0,0-.172-2.435c-1.015-1.012-2.046-2.007-3.071-3.009-.266-.26-.556-.541-.2-.9s.659-.079.907.189c.5.539.981,1.1,1.485,1.661,1.911-1.794,3.7-3.4,4.2-5.92a7.932,7.932,0,0,0-1.332-6.379c-.052-.073-.148-.141-.153-.216-.019-.274-.008-.551-.008-.826.266.069.639.05.781.222a8.16,8.16,0,0,1,1.768,3.933,8.783,8.783,0,0,1-2.389,7.785c-.627.668-1.31,1.282-2.2,2.149a6.912,6.912,0,0,1,.914.59,2.551,2.551,0,0,1,.835,2.791,2.536,2.536,0,0,1-2.117,1.829,1.924,1.924,0,0,0-.242.076c.067,2.662-1.077,3.8-3.469,3.395a2.8,2.8,0,0,1-1.16,2.073,2.821,2.821,0,0,1-2.387.34,2.707,2.707,0,0,1-1.645,2.341A2.645,2.645,0,0,1,1866.056-20.8ZM1860-32.247a1.9,1.9,0,0,0-.737.309c-1.182,1.126-2.354,2.266-3.466,3.46a1.519,1.519,0,0,0,.151,2.076,1.517,1.517,0,0,0,2.077.133c1.178-1.1,2.314-2.243,3.42-3.412a1.408,1.408,0,0,0,.163-1.7A1.638,1.638,0,0,0,1860-32.247Zm4.8,4.805a1.694,1.694,0,0,0-.958-1.666,1.516,1.516,0,0,0-1.792.314c-.849.824-1.689,1.658-2.51,2.509a1.576,1.576,0,0,0-.06,2.282,1.58,1.58,0,0,0,2.331-.02c.837-.8,1.669-1.616,2.454-2.47A3.963,3.963,0,0,0,1864.792-27.442Zm-9.981-2.041a2.222,2.222,0,0,0,.793-.348c.976-.915,1.936-1.852,2.841-2.837a1.529,1.529,0,0,0-.141-2.122,1.508,1.508,0,0,0-2.071-.115c-.987.9-1.931,1.856-2.844,2.834a1.433,1.433,0,0,0-.169,1.694A1.658,1.658,0,0,0,1854.811-29.482Zm7.674,6.752a1.82,1.82,0,0,0,1.025,1.492,1.481,1.481,0,0,0,1.742-.262c.717-.67,1.418-1.362,2.084-2.083a1.582,1.582,0,0,0-.061-2.233,1.571,1.571,0,0,0-2.233.007c-.683.641-1.357,1.3-1.98,2A5.058,5.058,0,0,0,1862.485-22.731Zm4.341,1.212a1.6,1.6,0,0,0,2.434-.319c.41-.625.276-1.885-.384-2.091Z" transform="translate(-1848.501 51.051)" fill="#04072e"/>
  <path id="Path_1213" data-name="Path 1213" d="M1845.613-62.891c-.847.873-1.633,1.729-2.469,2.532a3.7,3.7,0,0,1-4.958.244,1.542,1.542,0,0,1-.146-2.532c1.18-1.194,2.374-2.376,3.56-3.565.155-.155.3-.32.463-.5-1.661-1.758-3.25-3.51-5.745-4.04a8,8,0,0,0-8.485,3.547,7.98,7.98,0,0,0,.54,9.178c.256.32.813.672.274,1.11-.524.426-.791-.162-1.05-.482a8.927,8.927,0,0,1,.886-12.162,8.944,8.944,0,0,1,12.15-.02c.736.68,1.4,1.438,2.186,2.252.71-.739,1.322-1.416,1.975-2.052a8.937,8.937,0,0,1,10.956-1.254c.153.093.36.164.435.3a4.033,4.033,0,0,1,.245.781,5.57,5.57,0,0,1-.773.048c-.117-.008-.224-.138-.338-.209a7.881,7.881,0,0,0-9.728.975c-2.283,2.212-4.515,4.478-6.764,6.725-.5.5-.469.763.1,1.187a2.706,2.706,0,0,0,3.507-.255c.906-.866,1.787-1.759,2.661-2.658.367-.378.682-.431,1.08-.042q2.5,2.44,5.021,4.857c.266.257.478.581.122.84-.161.117-.537-.033-.8-.106-.114-.031-.2-.177-.292-.27l-4.01-3.873C1846.053-62.482,1845.889-62.633,1845.613-62.891Z" transform="translate(-1825.616 71.952)" fill="#04072e"/>
</svg>
