<svg xmlns="http://www.w3.org/2000/svg" width="65.986" height="65.904" viewBox="0 0 65.986 65.904">
  <g id="Group_91" data-name="Group 91" transform="translate(-2238.406 -381.842)">
    <path id="Path_144" data-name="Path 144" d="M2333.361,447.7h-19.018v-1.517q0-15.327.017-30.653a2.509,2.509,0,0,0-.827-2.024q-1.967-1.854-3.8-3.847a2.389,2.389,0,0,1-.63-1.437c-.048-4.507-.03-9.015-.023-13.523a9.1,9.1,0,0,1,.122-.995h5.118V383.283h5.726l.22-1.441h7.538l.226,1.385h5.551c.073.484.126.845.2,1.345h4.884v1.52c0,7.213-.019,14.425.023,21.638a2.876,2.876,0,0,1-1.014,2.345c-1.2,1.1-2.3,2.316-3.5,3.416a2.473,2.473,0,0,0-.824,2.029q.034,15.262.015,30.525Zm-15.376-51.965-.123,2.067h-1.808c-.063-.722-.121-1.381-.179-2.043H2311c0,2.4-.006,4.706,0,7.016.005,1.8-.469,3.812.178,5.346.667,1.581,2.462,2.673,3.706,4.031a2.416,2.416,0,0,0,2.017.838c2.343-.051,4.688-.018,7.029-.018v2.015H2316.4v30.733h14.972V444.13q0-12.1,0-24.2c0-2.1-.548-4.439.2-6.24s2.786-3.059,4.259-4.555c.091-.092.22-.165.268-.275a4.6,4.6,0,0,0,.613-1.567c.051-3.99.03-7.981.024-11.972,0-.327-.053-.654-.09-1.084-.589,0-1.1-.035-1.6.006-1.711.139-3.42.311-5.132.454-.426.036-.864-.037-1.284.024a2.347,2.347,0,0,0-.693.366c-.354.2-.7.539-1.063.562-1.175.073-2.356.027-3.7.027.885,3.3-2.135,4.132-3.39,6.166,2.69,1.622,1.475,4.216,1.689,6.55h-1.839c-.463-1.837.469-3.717-1.251-5.364-1.676-1.606-3.606-.463-5.27-1.134v-1.8a22.535,22.535,0,0,1,2.864.021,4.694,4.694,0,0,0,4.565-1.884,2.419,2.419,0,0,0,.633-2.494Zm7.854-2.1v-9.812h-3.672v9.812Zm-9.45-.011h3.7v-8.394h-3.7Zm11.62-8.388v7.479h3.685v-7.479Zm8.68,1.325h-2.924v5.662h2.924Z" transform="translate(-52.46 0)" fill="#04072e"/>
    <path id="Path_145" data-name="Path 145" d="M2412.344,489.017h3.639v-7.211h3.856q-.044-.219-.09-.438a5.577,5.577,0,0,1,1.51-.585c1.152-.089,2.316-.042,3.474-.021.547.01,1.269-.247,1.313.746,0,.1.488.232.755.246.685.035,1.372.01,2.059.014.257,0,.679-.076.745.042.89,1.573,2.427.611,3.826,1.035v1.141c0,4.978.028,9.956-.034,14.933a2.619,2.619,0,0,1-.77,1.861c-2.384,1.785-3.121,4.034-2.924,6.99.262,3.93.065,7.892.065,11.839v1.552H2416v-1.442c0-4.935-.019-9.87.018-14.8a2.3,2.3,0,0,0-.911-2.119c-2.36-1.665-3.119-3.9-2.812-6.761A67.6,67.6,0,0,0,2412.344,489.017Zm3.1,4.4c1.172,0,2.239.049,3.3-.015a2.86,2.86,0,0,0,2.006-2.355h-1.564l-.245,1.095h-1.656l-.262-1.056h-2.7a46.694,46.694,0,0,1-.034,4.976,5.57,5.57,0,0,0,2.229,5.464,2.867,2.867,0,0,0,2.017.842c1.444-.07,2.893-.019,4.376-.019V504.3h-4.854V519.15h9.728V517.7c0-3.561.2-7.137-.063-10.677-.223-2.954.5-5.239,2.923-6.969a1.786,1.786,0,0,0,.79-1.1c.065-2.945.036-5.892.036-9.046-.817.147-1.459.293-2.108.375-2.155.27-4.312.517-6.574.785.478,2-1.6,2.521-2.223,3.875,1.139,1.251,1.242,1.8.862,4.512h-1.9c.663-3.386-.992-4.546-4.087-4.05Zm6.653-10.629v6.122h1.87v-6.122Zm-4.049,1.016v5.141h1.9V483.8Zm7.995,4.5h1.9v-4.487h-1.9Zm5.389-3.6H2430.1v3.257h1.335Z" transform="translate(-129.045 -73.414)" fill="#04072e"/>
    <path id="Path_146" data-name="Path 146" d="M2238.432,508.048h3.735V500.6c1.176,0,2.234.045,3.286-.028.313-.022.6-.379.907-.569.25-.155.509-.408.77-.415,1.5-.04,3-.021,4.5-.017.17,0,.464-.02.491.05.695,1.8,2.242.645,3.348.99a9.66,9.66,0,0,1,1.068.53,3.06,3.06,0,0,0,.981.369c.8.054,1.612.017,2.556.017v1.381c0,5.106.027,10.213-.034,15.318a2.589,2.589,0,0,1-.771,1.857c-2.594,1.875-3.386,4.317-3.066,7.439a74.852,74.852,0,0,1,.051,7.531h-14.045c0-2.731-.19-5.438.053-8.106.248-2.72-.424-4.857-2.674-6.435a3.055,3.055,0,0,1-1.182-2.9C2238.478,514.49,2238.432,511.364,2238.432,508.048Zm15.929,25.08v-1.323c0-2.4.1-4.813-.034-7.21a3.969,3.969,0,0,1,1.644-3.877,5.156,5.156,0,0,0,2.208-5.2c-.193-2.113-.042-4.258-.042-6.593l-9.046,1.194c.5,2.07-1.6,2.627-2.282,4a4.529,4.529,0,0,1,.787,4.669h-1.57c-.432-1.2.283-2.463-.809-3.571-1.123-1.14-2.464-.326-3.607-.819v-1.81c1.216,0,2.368.071,3.508-.023.838-.07,1.965-1.636,1.934-2.511h-1.666c.043,1.687-1.018,1.218-1.939,1.159l-.205-1.151h-2.868a44.406,44.406,0,0,1-.04,5.211,5.466,5.466,0,0,0,2.4,5.633,4.419,4.419,0,0,0,2,.816c1.483.123,2.983.038,4.535.038v2h-5.041v9.364Zm-6.011-31.573v6.452h2.049v-6.452Zm-2,6.456v-3.727c0-1.971-.131-2.067-2.133-1.578v5.305Zm8.21-5.4h-2.1v4.67h2.1Zm2.024,4.355h1.475v-3.429h-1.475Z" transform="translate(0 -87.398)" fill="#04072e"/>
    <path id="Path_147" data-name="Path 147" d="M2242.249,445.326l4.287-3.452,2.354,2.878,6.492-5.7,3.71,3.55-10.318,10.8Zm14.11-2.654-.988-.89-6.612,5.879-2.521-3.061-1.23,1.057,3.88,4.8Z" transform="translate(-2.853 -42.474)" fill="#04072e"/>
    <path id="Path_148" data-name="Path 148" d="M2433.361,439.326l-5.827-7.225,3.915-3.163,2.242,2.744,5.166-5.407,3.314,3.835Zm-3.081-6.9,2.786,3.45,6.684-5.832c-.5-.976-.854-.967-1.467-.395-1.652,1.542-3.382,3-5.093,4.5l-2-2.445Z" transform="translate(-140.406 -32.986)" fill="#04072e"/>
    <path id="Path_149" data-name="Path 149" d="M2385.464,571.281h-1.692V553.939h1.692Z" transform="translate(-107.918 -127.762)" fill="#04072e"/>
    <path id="Path_150" data-name="Path 150" d="M2376.57,456.382h-1.962c0-2.2-.014-4.412.02-6.623a1.314,1.314,0,0,1,.434-.741c1.5-1.532,3.011-3.046,4.72-4.767l1.177,1.724c-1.089,1.052-2.391,2.21-3.56,3.49a3.3,3.3,0,0,0-.792,1.87C2376.5,452.989,2376.57,454.656,2376.57,456.382Z" transform="translate(-101.112 -46.331)" fill="#04072e"/>
    <path id="Path_151" data-name="Path 151" d="M2385.152,476.728l-1.518-1.353c1.264-1.27,2.378-2.51,3.622-3.6a3.5,3.5,0,0,0,1.47-3.437,4.635,4.635,0,0,1,.05-.981h1.73c.183,1.985.5,3.876-1.455,5.4A40.637,40.637,0,0,0,2385.152,476.728Z" transform="translate(-107.816 -63.484)" fill="#04072e"/>
    <path id="Path_152" data-name="Path 152" d="M2405.514,442.391v1.77h-1.721v-1.77Z" transform="translate(-122.781 -44.951)" fill="#04072e"/>
    <path id="Path_153" data-name="Path 153" d="M2385.269,530.732h-1.739v-1.78h1.739Z" transform="translate(-107.738 -109.212)" fill="#04072e"/>
    <path id="Path_154" data-name="Path 154" d="M2383.473,543.312v-1.733h1.787v1.733Z" transform="translate(-107.695 -118.586)" fill="#04072e"/>
    <path id="Path_155" data-name="Path 155" d="M2403.653,454.824h1.748v1.746h-1.748Z" transform="translate(-122.677 -54.181)" fill="#04072e"/>
    <path id="Path_156" data-name="Path 156" d="M2461.744,524.511l1.361,1.569c-2.328,1.641-3.866,3.754-2.846,6.954h-2.091c0-1.526-.019-3.014.018-4.5a1.331,1.331,0,0,1,.4-.764C2459.58,526.713,2460.6,525.68,2461.744,524.511Z" transform="translate(-163.144 -105.915)" fill="#04072e"/>
    <path id="Path_157" data-name="Path 157" d="M2286.981,554.038h-1.848c-1.109-3.8.252-6.568,3.554-8.552l1.288,1.3C2287.448,548.49,2285.963,550.719,2286.981,554.038Z" transform="translate(-34.407 -121.487)" fill="#04072e"/>
  </g>
</svg>
