<svg xmlns="http://www.w3.org/2000/svg" width="66.379" height="66.361" viewBox="0 0 66.379 66.361">
  <g id="Group_419" data-name="Group 419" transform="translate(0 0)">
    <path id="Path_53" data-name="Path 53" d="M1817.355,56.654h7.307a6.551,6.551,0,0,0,.091-.768c.006-3.7.021-7.4-.02-11.093,0-.39-.255-1.022-.542-1.128-3.452-1.266-5.039-3.957-5.639-7.35a10.58,10.58,0,0,1,2.709-9.645,6.124,6.124,0,0,1,9.143-.01c3.8,3.816,3.9,11.1.172,15a3.962,3.962,0,0,1-1.659,1.3c-2.336.5-2.187,2.114-1.948,3.82a25.139,25.139,0,0,1,3.015-.722,26.575,26.575,0,0,1,3.163-.028c.658,3.781-1.642,6.2-6.145,6.467v4.2h6.325c-.864,14.018-13.079,29.137-31.731,29.923-19.008.8-33.353-13.849-34.648-29.876h6.4V52.506c-2.094.005-4.029-.461-5.337-2.31a5.917,5.917,0,0,1-.93-4.359l6.3.723a6.079,6.079,0,0,1,.039-.763c.18-1.313-.169-2.023-1.579-2.647-3.035-1.344-4.3-4.153-4.721-7.289a10.64,10.64,0,0,1,2.653-9.049,6.171,6.171,0,0,1,9.427-.014c3.729,3.894,3.712,11.223-.116,14.984a18.29,18.29,0,0,1-2.764,1.8c-.287.193-.721.485-.724.736-.046,4.086-.032,8.173-.032,12.325h7.382V48.2h-3.961c.405-.674.684-1.153.977-1.623,1.507-2.418,3.1-4.786,4.5-7.268.786-1.4,1.683-2.138,3.343-1.871a17.313,17.313,0,0,0,2.626.023V33.179c-.322,0-.662.008-1,0a3.218,3.218,0,0,1-3.013-2.234,2.947,2.947,0,0,1,1.081-3.453c3.51-2.275,7.053-4.5,10.646-6.645a4.1,4.1,0,0,1,4.345.137c3.386,2.056,6.74,4.168,10.073,6.308a3.058,3.058,0,0,1,1.311,3.722,3.2,3.2,0,0,1-3.324,2.155c-.216-.007-.431-.037-.706-.061v4.358c1.312,0,2.629-.024,3.944.016.361.011.892.1,1.048.343,2.155,3.357,4.259,6.747,6.5,10.325h-3.98Zm-6.563,2.29h-21.274c.485,3.607.955,7.1,1.418,10.528H1809.4Zm-41.43-.018a28.154,28.154,0,0,0,3.722,10.036,1.772,1.772,0,0,0,1.313.562c2.981.049,5.964.025,8.946.025h5.388c-.463-3.614-.907-7.085-1.361-10.623ZM1811.6,69.455a1.278,1.278,0,0,0,.332.079c4.762.007,9.524.029,14.286-.023a1.611,1.611,0,0,0,1.17-.8c1-2.173,1.955-4.373,2.817-6.605a24.278,24.278,0,0,0,.771-3.172h-18.031C1812.494,62.488,1812.05,65.961,1811.6,69.455Zm-21.078-29.848c-1.035,0-1.879-.027-2.72.012-.372.017-.923.044-1.077.276-1.291,1.943-2.509,3.935-3.822,6.029h34.5c-1.287-2.069-2.472-3.989-3.683-5.893a.92.92,0,0,0-.619-.4c-1.091-.04-2.184-.019-3.272-.019-.037.807-.065,1.416-.094,2.049h-19.215Zm1.069,32.124c1.059,3.9,2.237,7.623,4.82,10.692,2.344,2.786,5.112,2.8,7.456.046,2.623-3.087,3.8-6.842,4.862-10.738Zm3.484,12.373c-3.132-3.815-4.523-8.024-5.712-12.326h-14.489A31.9,31.9,0,0,0,1795.077,84.1Zm.779-33.711h8.614v6.241h2.151V50.406h6.43v6.214h1.971V48.234h-29.747V56.61h2.092V50.381h6.429v6.266h2.061Zm1.061-17.114h6.529v6.241h4.2c0-2.432.028-4.784-.031-7.134a1.491,1.491,0,0,0-.676-1c-2-1.25-4.017-2.472-6.073-3.625a1.675,1.675,0,0,0-1.4,0c-2.056,1.152-4.07,2.38-6.076,3.62-.3.185-.673.563-.679.86-.055,2.429-.031,4.859-.031,7.295h4.235Zm8.344,50.837a31.992,31.992,0,0,0,20.2-12.364h-14.512C1809.795,76.1,1808.342,80.272,1805.261,84.117Zm-29.7-42.379a16.446,16.446,0,0,0,1.93-1.317c3.1-2.9,3.107-9.337.049-12.3a4.2,4.2,0,0,0-6.454.37c-2.589,3.019-2.611,8.544.022,11.519a13.474,13.474,0,0,0,2.062,1.592l.318-.276V31.112h2.073Zm51.319-.387.335.244a14.01,14.01,0,0,0,2.008-1.6,9.454,9.454,0,0,0-.015-11.521,4.256,4.256,0,0,0-6.9.166,9.466,9.466,0,0,0,.006,11.206,14.632,14.632,0,0,0,2.151,1.786l.311-.248V31.132h2.107Zm-26.6-18.942a5.511,5.511,0,0,0-1.262.375c-3.371,2.076-6.739,4.158-10.061,6.311-.307.2-.291.895-.425,1.36a7.807,7.807,0,0,0,1.495.379c.259.017.541-.275.808-.435,2.786-1.668,5.586-3.314,8.345-5.026a1.561,1.561,0,0,1,1.914-.021c2.873,1.782,5.791,3.49,8.687,5.235.694.418,1.415.792,1.955-.113.5-.842-.149-1.293-.782-1.689-3.016-1.89-6.024-3.792-9.053-5.662A12.068,12.068,0,0,0,1800.289,22.409ZM1798.1,52.5V56.63h4.106V52.5Zm3.08-17.109h-2.009v4.122h2.009Zm-9.663,21.262V52.5h-1.974v4.157Zm17.292-4.149v4.107h1.984V52.5Zm-39.4-4.277c.99,1.792,2.056,2.3,3.712,1.839A3.291,3.291,0,0,0,1769.408,48.228Zm57.7,1.995c2.169.13,3.193-.464,3.672-2.023A3.37,3.37,0,0,0,1827.106,50.222Z" transform="translate(-1766.948 -20.285)" fill="#dd131a"/>
    <path id="Path_54" data-name="Path 54" d="M1861.51,174.908h-1.958V172.88h1.958Z" transform="translate(-1834.793 -132.08)" fill="#dd131a"/>
    <path id="Path_55" data-name="Path 55" d="M1877.51,174.908h-1.958V172.88h1.958Z" transform="translate(-1846.515 -132.08)" fill="#dd131a"/>
    <path id="Path_56" data-name="Path 56" d="M1891.563,172.623h1.935v2.03h-1.935Z" transform="translate(-1858.244 -131.892)" fill="#dd131a"/>
    <path id="Path_57" data-name="Path 57" d="M1928.454,237.614l-.773-1.937,1.861-.821.929,1.9Z" transform="translate(-1884.705 -177.485)" fill="#dd131a"/>
    <path id="Path_58" data-name="Path 58" d="M1955.649,220.668l-1.314-1.659,1.537-1.33,1.459,1.557Z" transform="translate(-1904.232 -164.902)" fill="#dd131a"/>
    <path id="Path_59" data-name="Path 59" d="M1943.336,227.185l1.186,1.76-1.84,1.167-1.072-1.822Z" transform="translate(-1894.91 -171.865)" fill="#dd131a"/>
  </g>
</svg>
