<svg xmlns="http://www.w3.org/2000/svg" width="36.887" height="27.011" viewBox="0 0 36.887 27.011">
  <path id="Path_8806" data-name="Path 8806" d="M1881.321-34.708l4.233-8.822c-1.22-1.506-1.274-2.98-.176-4.045a2.653,2.653,0,0,1,3.6-.089c1.118.981,1.174,2.461.1,3.954l4.826,8.665c.26-.187.48-.338.694-.5,1.843-1.39,3.678-2.791,5.533-4.167a.724.724,0,0,0,.325-.881,2.616,2.616,0,0,1,1.971-3.191,2.67,2.67,0,0,1,3.181,2.024,2.609,2.609,0,0,1-2.056,3.135.826.826,0,0,0-.719.724c-1.056,3.969-2.165,7.924-3.162,11.908a4.818,4.818,0,0,0,.247,2.137c.523,2.169.255,2.542-1.955,2.542q-10.924,0-21.849,0c-1.613,0-2.119-.587-1.618-2.125a6.766,6.766,0,0,0-.017-4.213c-1-3.377-1.872-6.794-2.771-10.2a.906.906,0,0,0-.833-.78,2.6,2.6,0,0,1-2.039-3.083,2.677,2.677,0,0,1,3.146-2.082,2.7,2.7,0,0,1,2.081,3.084,1.02,1.02,0,0,0,.234.82C1876.583-38.168,1878.9-36.483,1881.321-34.708Zm5.159-8.309q-2.092,4.358-4.2,8.752c-.526,1.1-.617,1.117-1.6.4l-7.324-5.369c-.735.24-.786.66-.6,1.309,1.038,3.711,2.035,7.433,3.028,11.156.117.439.241.691.782.69q10.7-.028,21.39,0c.457,0,.667-.126.783-.589.4-1.623.857-3.235,1.292-4.85q.966-3.59,1.936-7.193l-.767-.481c-2.245,1.695-4.469,3.375-6.7,5.054-.837.63-.972.6-1.489-.326-1.519-2.723-3.031-5.45-4.565-8.165a.91.91,0,0,0-.571-.438A9.005,9.005,0,0,0,1886.48-43.017Zm-11.173,20.585h23.864a18.489,18.489,0,0,1-.443-1.817c-.092-.646-.411-.779-1.023-.777-6.97.022-13.94.014-20.911.014h-.807Zm27.676-20.343a1.591,1.591,0,0,0-1.571,1.613,1.639,1.639,0,0,0,1.631,1.572,1.6,1.6,0,0,0,1.558-1.63A1.568,1.568,0,0,0,1902.983-42.775ZM1887.2-44.089a1.577,1.577,0,0,0,1.619-1.556,1.605,1.605,0,0,0-1.558-1.63,1.606,1.606,0,0,0-1.619,1.568A1.577,1.577,0,0,0,1887.2-44.089Zm-15.8,1.315a1.559,1.559,0,0,0-1.541,1.629,1.586,1.586,0,0,0,1.579,1.528,1.616,1.616,0,0,0,1.591-1.6A1.585,1.585,0,0,0,1871.4-42.774Z" transform="translate(-1868.783 48.323)" fill="#04072e"/>
</svg>
