<svg xmlns="http://www.w3.org/2000/svg" width="12.343" height="18.439" viewBox="0 0 12.343 18.439">
  <path id="Path_983" data-name="Path 983" d="M2173.56,510.154a5.973,5.973,0,0,1-.762,2.97q-2.471,4.483-4.96,8.956c-.088.158-.285.352-.43.352s-.342-.2-.43-.354c-1.661-2.981-3.337-5.954-4.953-8.959a6.165,6.165,0,0,1,5.763-9.118A6.14,6.14,0,0,1,2173.56,510.154Zm-6.143-3.082a3.074,3.074,0,1,0,3.074,3.079A3.081,3.081,0,0,0,2167.417,507.072Z" transform="translate(-2161.218 -503.992)" fill="#dd131a"/>
</svg>
