<svg xmlns="http://www.w3.org/2000/svg" width="74.416" height="70.625" viewBox="0 0 74.416 70.625">
  <g id="love-4223" transform="translate(126.035 119.615)">
    <g id="Group_389" data-name="Group 389" transform="translate(-126.035 -119.614)">
      <path id="Path_1206" data-name="Path 1206" d="M72.189,34.1A18.79,18.79,0,0,0,42.356,11.915L38.468,15.8a1.784,1.784,0,0,1-2.519,0l-3.888-3.888A18.79,18.79,0,0,0,2.228,34.1a2.266,2.266,0,0,0-1.8,2.608L2.48,51.8a25,25,0,0,0,7,13.33l4.245,4.223a3.834,3.834,0,0,1,1.122,2.7v1.51a3.492,3.492,0,0,0,3.488,3.488h11.4a3.492,3.492,0,0,0,3.488-3.488v-4.2A8.455,8.455,0,0,1,33.7,66.7l1.192,1.192a3.277,3.277,0,0,0,4.629,0L40.715,66.7a8.454,8.454,0,0,1,.479,2.663v4.2a3.492,3.492,0,0,0,3.488,3.488h11.4a3.492,3.492,0,0,0,3.488-3.488v-1.51a3.834,3.834,0,0,1,1.122-2.7l4.246-4.223a25.021,25.021,0,0,0,7.007-13.365l2.044-15.013a2.267,2.267,0,0,0-1.8-2.643ZM31.569,69.36v4.2a1.837,1.837,0,0,1-1.834,1.835h-11.4A1.836,1.836,0,0,1,16.5,73.558v-1.51a5.5,5.5,0,0,0-1.61-3.872l-4.245-4.223A23.334,23.334,0,0,1,4.113,51.538L2.058,36.453a.642.642,0,0,1,.718-.75c4.516.617,8.223,8.884,9.068,16.189a.828.828,0,0,0,.632.71c3.878.912,6.923,3.591,7.821,5.648a.827.827,0,1,0,1.516-.661c-1.038-2.381-4.223-5.292-8.4-6.453a35.182,35.182,0,0,0-1.384-6.11l20.4,20.4A10.1,10.1,0,0,0,31.569,69.36Zm6.785-2.642a1.624,1.624,0,0,1-2.29,0L10.482,41.136c-1.576-3.226-3.671-5.748-6.131-6.7A17.131,17.131,0,0,1,30.891,13.084l3.888,3.888a3.438,3.438,0,0,0,4.858,0l3.888-3.888A17.132,17.132,0,0,1,70.066,34.436c-2.46.951-4.555,3.474-6.131,6.7ZM70.309,51.5a23.35,23.35,0,0,1-6.539,12.451l-4.246,4.223a5.5,5.5,0,0,0-1.61,3.872v1.51a1.837,1.837,0,0,1-1.835,1.835h-11.4a1.837,1.837,0,0,1-1.835-1.835v-4.2a10.112,10.112,0,0,0-.863-3.933l20.4-20.4A35.183,35.183,0,0,0,61,51.136c-4.175,1.163-7.358,4.073-8.4,6.453a.827.827,0,1,0,1.517.661c.9-2.057,3.942-4.736,7.82-5.648a.828.828,0,0,0,.632-.71c.845-7.305,4.553-15.571,9.069-16.189a.633.633,0,0,1,.548.192.656.656,0,0,1,.162.594Z" transform="translate(-0.001 -6.422)" fill="#dd131a"/>
    </g>
  </g>
</svg>
