<svg xmlns="http://www.w3.org/2000/svg" width="75.783" height="55.39" viewBox="0 0 75.783 55.39">
  <g id="Group_106" data-name="Group 106" transform="translate(-1461.828 -377.08)">
    <path id="Path_172" data-name="Path 172" d="M1478.467,427.7a28.648,28.648,0,0,1,.025-3.189,25.659,25.659,0,0,1,.7-2.94,5.532,5.532,0,0,0-.849-.105q-4.3-.016-8.591,0c-1.765.008-1.987.233-2,1.938-.009,1.37,0,2.74,0,4.264,1.129,0,2.1-.007,3.077,0,.81.008,1.646.245,1.488,1.177-.072.427-.912.96-1.454,1.025a35.828,35.828,0,0,1-3.845.051,1.281,1.281,0,0,1-1.48-1.43c0-2.024-.062-4.051.04-6.07a3.176,3.176,0,0,1,3.407-3.158c.925-.029,1.852-.005,2.828-.005,0-1.07.366-2.28-.082-2.844a11.8,11.8,0,0,0-3.092-2.189c-.144-.091-.455.066-.683.129a4.076,4.076,0,0,1-5.231-2.379,10.691,10.691,0,0,1-.6-6.95,29.344,29.344,0,0,1,4.289-10.468c2.852-4.359,7.253-4.832,11.75-4.407,1.623.154,3.116,1.683,4.948,2.748.443-1.216,1.021-2.681,1.511-4.175.459-1.4.671-2.9,1.26-4.234a9.345,9.345,0,0,1,9.941-5.654,4.566,4.566,0,0,0,2.462-.531,10.607,10.607,0,0,1,12.323,1.753c.55.56,1.076,1.172.351,1.894-.7.7-1.309.226-1.913-.3-3.362-2.952-6.835-3.139-10.673-.686a2.573,2.573,0,0,1-1.655.267c-5.175-.829-8.487,1.523-9.732,6.7a35.015,35.015,0,0,1-2.318,6.485c-1.41,3.039-2.269,6.1-1.511,9.446a5.071,5.071,0,0,0,4.366,4.22c1.056.089,1.6-.254,1.568-1.364-.069-2.317.006-4.647-.214-6.949a11.735,11.735,0,0,1,2.681-9.087,33.922,33.922,0,0,0,2.224-3.636c.294-.463.685-1.116,1.1-1.175.391-.055,1.021.47,1.3.9a8.815,8.815,0,0,0,4.879,3.4c6.366,2.226,8.847,6.24,8.023,12.961-.144,1.173-.12,2.365-.23,3.543-.124,1.323.506,1.594,1.683,1.432a6.332,6.332,0,0,0,5.469-5.922,16.8,16.8,0,0,0-1.62-8.6,54.524,54.524,0,0,1-2.68-8.088,1.41,1.41,0,0,1,.71-1.2,1.427,1.427,0,0,1,1.271.58,19.511,19.511,0,0,1,.9,2.8c.543,1.762,1.09,3.523,1.653,5.338.463-.172.629-.183.716-.273,2.86-2.932,6.584-2.869,10.208-2.686a6.13,6.13,0,0,1,3.413,1.876,23.061,23.061,0,0,1,6.986,14.639,10.608,10.608,0,0,1-.862,4.864,4.866,4.866,0,0,1-4.907,3.149c-2.679-.06-4.18,1.731-3.687,4.623.891,0,1.816-.027,2.739.005a3.267,3.267,0,0,1,3.468,3.43c.067,1.824-.007,3.653.027,5.48.024,1.266-.567,1.771-1.8,1.76-3.357-.028-6.714.013-10.071-.023a1.742,1.742,0,0,0-1.954,1.076c-.643,1.407-2.029,1.542-3.421,1.54q-11.539-.016-23.078,0c-3.941,0-7.881-.013-11.821.005a3.431,3.431,0,0,1-3.519-1.94,1.51,1.51,0,0,0-1-.583c-.524-.1-1.128.094-1.61-.081-.434-.157-.749-.642-1.117-.982.365-.394.668-1.006,1.109-1.131A9.675,9.675,0,0,1,1478.467,427.7Zm16.656-38.031c-.716.943-1.583,2.07-2.432,3.209a8.236,8.236,0,0,0-1.615,5.556c.136,2.51.2,5.024.353,7.532a2.793,2.793,0,0,0,.562,1.451,10.1,10.1,0,0,0,14.045,1.429,1.957,1.957,0,0,0,.6-1.211c.151-1.912.151-3.837.319-5.748.407-4.64-1.562-7.709-5.91-9.4C1499.056,391.709,1497.173,390.655,1495.124,389.671Zm25.961,9.425c-2.788,3.4-3.021,4.067-2.866,8.458a14.046,14.046,0,0,1,.068,2.07,3.564,3.564,0,0,0,2.133,3.719,10.868,10.868,0,0,0,3.3,1.167,7.109,7.109,0,0,0,4.929-1.18c1.143-.689.508-1.784.816-2.644.136-.379.674-.9.978-.865a1.7,1.7,0,0,1,1.114.886,5.557,5.557,0,0,1,.24,1.683,2.951,2.951,0,0,0,2.925-1.9,8.948,8.948,0,0,0,.63-3.579,21.652,21.652,0,0,0-5.91-13.1,5.156,5.156,0,0,0-5.674-1.469,5.238,5.238,0,0,1-1.284.267c-3.838.111-5.451,2.5-3.979,6.315.489-.977.887-1.8,1.31-2.611.5-.955,1.473-1.192,1.957-.355,1.066,1.843,2.842,2.486,4.658,3.153a7.911,7.911,0,0,1,5.347,6.184c.154.758.252,1.577-.745,1.785-.974.2-1.235-.516-1.4-1.315a6.108,6.108,0,0,0-4.245-4.7C1523.923,400.532,1522.544,399.773,1521.085,399.1Zm-10.948,31.075c0-2.084,0-4.048,0-6.013,0-2.425-.447-2.9-2.833-2.811a3.5,3.5,0,0,0-1.741.569,39.2,39.2,0,0,0-3.768,2.86,3.062,3.062,0,0,0-.871,1.664c-.149.811-.136,1.708-1.218,1.667s-1.022-.955-1.119-1.761a2.227,2.227,0,0,0-.593-1.363c-1.4-1.164-2.853-2.279-4.353-3.316-1.547-1.069-4.133-.317-4.219,1.249-.131,2.392-.034,4.8-.034,7.255Zm-38.11-30.952c-2.591,2.264-3.238,5.281-2.869,8.638a6.455,6.455,0,0,1,.029,1.621c-.3,2.043.838,3.252,2.418,4.14a7.147,7.147,0,0,0,7.939-.28,1.794,1.794,0,0,0,.755-1.122c.161-1.562.2-3.137.276-4.708a5.964,5.964,0,0,0-4.093-6.3C1474.989,400.615,1473.542,399.9,1472.027,399.218Zm35.1,19.219a42.459,42.459,0,0,1,4.186,2.032c.81.508,3.266.873,3.877.131a4.282,4.282,0,0,1,3.848-1.406c.62.024,1.243,0,1.833,0,.358-2.649.355-2.645-1.627-3.946a9.155,9.155,0,0,0-1.071-.777,1.809,1.809,0,0,0-1.141-.18,4.016,4.016,0,0,1-5-2.013c-.34-.587-.578-1.233-.837-1.795-1.973-.387-3.807-.368-5.31,1.153a1.486,1.486,0,0,1-.643.354c-1.387.381-1.525,1.3-1.263,2.084,1.189.565,2.5.769,2.893,1.48C1507.361,416.44,1507.093,417.743,1507.129,418.437Zm-26.628-17.69c.349-1.512.742-3.123,1.077-4.745a1.39,1.39,0,0,0-.2-.929,5.622,5.622,0,0,0-6.876-2.591,2.5,2.5,0,0,1-.856.189c-2.327-.241-3.8,1.087-5.048,2.763a22.762,22.762,0,0,0-4.321,10.549,13.932,13.932,0,0,0,.342,4.651,1.927,1.927,0,0,0,2.254,1.7c0-2.164.011-4.275,0-6.385a9.968,9.968,0,0,1,1.656-6.017c.785-1.12,1.483-2.306,2.16-3.5.655-1.153,1.313-1.113,2.253-.138a13.8,13.8,0,0,0,3.088,2.378C1477.458,399.485,1479.021,400.073,1480.5,400.747Zm15.283,13.6c-.322-.721-.444-1.618-.955-2.014a50.818,50.818,0,0,0-4.281-2.741,5.417,5.417,0,0,0-3.527,2.832,4.387,4.387,0,0,1-4.222,2.254c-2.813-.071-4.351,1.715-3.755,4.512.318.021.654.069.989.062,1.736-.036,3.345-.007,4.761,1.43a2.919,2.919,0,0,0,2.848.2A5.828,5.828,0,0,1,1492.3,419C1492.725,414.964,1492.725,414.964,1495.785,414.345Zm24.62,7.041.884,6.084h10.785c0-1.6-.025-3.083.008-4.561.024-1.072-.483-1.528-1.517-1.526C1527.066,421.39,1523.566,421.386,1520.405,421.386Zm-33.3,5.363c0-.639-.05-1.282.01-1.915.123-1.3-.44-1.78-1.712-1.688a25.174,25.174,0,0,1-3.094,0c-1.111-.057-1.661.334-1.577,1.52.063.88.01,1.768.012,2.652.008,3.221-.285,2.921,2.946,2.9C1487.532,430.2,1487.066,430.777,1487.1,426.749Zm31.659.006a19.006,19.006,0,0,1,.011-1.915c.131-1.3-.428-1.786-1.7-1.692a18.013,18.013,0,0,1-2.945,0c-1.409-.129-1.85.509-1.737,1.814.068.78.013,1.571.012,2.357,0,3.3-.187,2.92,2.949,2.907C1519.257,430.208,1518.715,430.738,1518.76,426.755Zm-24.011-7.8h9.979V417h-9.979ZM1482.724,408.2c-.07,1.522-.131,2.85-.193,4.209,1.958-.164,2.576-.641,3.2-2.3Zm33.2,4.13v-4.449l-2.5,1.779C1514.04,411.717,1514.323,412.03,1515.921,412.333Zm9.716,6.781v-2.221h-2.322v2.221Zm-28.651,2.26,2.782,2.089,2.727-2.089Zm-22.752-2.194h2.307v-2.225h-2.307Zm27.453-5.857h-3.793c-.13,1.411.823,1.674,3.793,1.111Z" transform="translate(0)" fill="#04072e"/>
  </g>
</svg>
