<svg xmlns="http://www.w3.org/2000/svg" width="17.303" height="17.294" viewBox="0 0 17.303 17.294">
  <g id="Group_13" data-name="Group 13" transform="translate(-2480.977 -332.47)">
    <path id="Path_25" data-name="Path 25" d="M2493.215,372.216a7.756,7.756,0,0,1-3.263-.9,17.24,17.24,0,0,1-8.193-8.345,7.354,7.354,0,0,1-.781-2.882,2.39,2.39,0,0,1,.792-1.965c.393-.354.748-.75,1.131-1.116a1.227,1.227,0,0,1,1.906,0q1.006.978,1.983,1.987a1.217,1.217,0,0,1-.006,1.926c-.359.374-.722.745-1.1,1.1a.486.486,0,0,0-.109.678,12.015,12.015,0,0,0,3.5,4.019,17.638,17.638,0,0,0,1.518.941.357.357,0,0,0,.505-.08c.375-.39.758-.773,1.145-1.151a1.238,1.238,0,0,1,1.976-.005q.978.959,1.938,1.936a1.248,1.248,0,0,1-.009,1.98c-.37.379-.754.745-1.117,1.13A2.335,2.335,0,0,1,2493.215,372.216Z" transform="translate(0 -22.452)" fill="#dd131a"/>
    <path id="Path_26" data-name="Path 26" d="M2610.4,333.744l.18-1.274a9.818,9.818,0,0,1,8.364,8.1l-1.275.218A8.716,8.716,0,0,0,2610.4,333.744Z" transform="translate(-120.667 0)" fill="#dd131a"/>
    <path id="Path_27" data-name="Path 27" d="M2607.744,384.95l.183-1.283a5.863,5.863,0,0,1,5.031,4.862l-1.29.225A4.714,4.714,0,0,0,2607.744,384.95Z" transform="translate(-118.188 -47.732)" fill="#dd131a"/>
  </g>
</svg>
