<svg xmlns="http://www.w3.org/2000/svg" width="19.685" height="19.693" viewBox="0 0 19.685 19.693">
  <path id="Path_32" data-name="Path 32" d="M3175.862,711.241a7.931,7.931,0,1,1,1.389-1.4c.088.095.177.2.274.295q2.419,2.421,4.839,4.842a.99.99,0,0,1-.359,1.735,1.041,1.041,0,0,1-1.065-.367q-2.034-2.045-4.077-4.081C3176.528,711.933,3176.2,711.59,3175.862,711.241Zm-10.849-6.251a5.952,5.952,0,1,0,5.967-5.954A5.946,5.946,0,0,0,3165.012,704.989Z" transform="translate(-3163.046 -697.06)" fill="#717171"/>
</svg>
