<svg xmlns="http://www.w3.org/2000/svg" width="191.592" height="77.859" viewBox="0 0 191.592 77.859">
  <path id="Path_35" data-name="Path 35" d="M443.858,290.849c20.765-.472,43.908-2.291,66.645-7.7,7.059-1.679,14.041-3.679,20.542-6.966a48.843,48.843,0,0,0,8.365-5.247,19.851,19.851,0,0,0,4.688-5.569c2.862-4.982,2.059-10.131-2.312-13.85A41.855,41.855,0,0,0,533.227,246a133.666,133.666,0,0,0-27.718-9.648,137.725,137.725,0,0,0-24.059-3.2,8.307,8.307,0,0,1-2.822-.378c-.663-.3-1.546-1.235-1.472-1.77a3.268,3.268,0,0,1,1.59-2.042,5.717,5.717,0,0,1,2.512-.21c13.164-.128,25.873,2.5,38.238,6.75a171.606,171.606,0,0,1,17.709,7.3,33.68,33.68,0,0,1,8.341,5.82c5.2,4.853,6.25,11.421,3.3,17.882a23.058,23.058,0,0,1-6.74,8.413c-5.057,4.071-10.88,6.673-16.936,8.817-11.709,4.146-23.834,6.509-36.09,8.248a352.521,352.521,0,0,1-43.98,3.456c-17.644.28-35.181-.618-52.429-4.692a69.368,69.368,0,0,1-19.6-7.605,34.129,34.129,0,0,1-10.4-8.867c-4.5-6.079-4.951-12.539-1.624-19.269a33.24,33.24,0,0,1,7.728-9.709c8.172-7.443,17.795-12.436,27.991-16.4,13.3-5.17,27.158-8.034,41.279-9.739a235.522,235.522,0,0,1,54.281.082c15.608,1.727,31,4.591,45.764,10.163,1.89.713,3.715,1.605,5.549,2.459,1.284.6,2.115,1.526,1.564,3.048-.41,1.134-1.651,1.473-3.295.728-9.3-4.215-19.2-6.338-29.107-8.42a245.682,245.682,0,0,0-35.18-4.466,208.405,208.405,0,0,0-62.234,5.265,119.155,119.155,0,0,0-31.511,12.164,58.225,58.225,0,0,0-13.957,10.611,32.073,32.073,0,0,0-4.085,5.3c-3.555,5.934-3.044,11.764,1.77,16.687a43.251,43.251,0,0,0,8.262,6.471c6.615,4.067,14.006,6.2,21.557,7.746C411.913,289.971,426.582,290.883,443.858,290.849Z" transform="translate(-358.88 -217.626)" fill="#dd131a"/>
</svg>
