<svg xmlns="http://www.w3.org/2000/svg" width="67.866" height="66.606" viewBox="0 0 67.866 66.606">
  <g id="Group_69" data-name="Group 69" transform="translate(-2012.984 -429.367)">
    <path id="Path_64" data-name="Path 64" d="M2016.469,500.264V461.432a3.76,3.76,0,0,1-3.243-2.422,3.389,3.389,0,0,1,.858-3.773q8.039-8.076,16.112-16.117a3.462,3.462,0,0,1,5.188.019c1.811,1.748,3.567,3.553,5.347,5.333.5.5.94,1.055.271,1.694-.647.618-1.194.206-1.7-.3-1.68-1.692-3.361-3.384-5.059-5.059-1.1-1.081-1.846-1.086-2.937,0q-7.738,7.72-15.457,15.46c-.967.969-1.085,1.948-.361,2.649.755.732,1.577.607,2.629-.443q6.659-6.645,13.306-13.3c1.236-1.235,1.461-1.237,2.673-.026q6.608,6.6,13.221,13.2a2.87,2.87,0,0,0,1.5.951c.49.036,1.36-.4,1.455-.787a2.453,2.453,0,0,0-.383-1.979c-2.076-2.228-4.277-4.34-6.434-6.492-.25-.25-.631-.467-.71-.764a1.909,1.909,0,0,1,.047-1.371c.133-.2.877-.163,1.257-.009s.648.58.961.891q2.911,2.9,5.82,5.8c2.849,2.848,2.13,5.754-1.755,6.916v11.1c1.507.08,2.961.065,4.389.251a10.164,10.164,0,0,1,7.508,4.708,97.4,97.4,0,0,1,4.509,8.651c1,2.009,1.861,4.093,2.9,6.082a4.774,4.774,0,0,0,4.974,2.774c1.711-.135,3.442-.039,5.164-.022,1.778.018,2.307.548,2.321,2.281.008,1.016,0,2.032,0,3.048a1.662,1.662,0,0,1-1.762,1.868c-.4.022-.795.012-1.192.012h-62.523a3.434,3.434,0,0,1-1.309-.051,4.41,4.41,0,0,1-1.046-.957c.35-.327.659-.857,1.058-.937A12.572,12.572,0,0,1,2016.469,500.264Zm16.337-53.668c-4.593,4.6-9.065,9.055-13.484,13.559a2.87,2.87,0,0,0-.733,1.806c-.059,4.855-.035,9.712-.029,14.568,0,.424.047.847.078,1.377h7.144c0-1.346-.046-2.491.013-3.631a15.083,15.083,0,0,1,.374-3.4,6.875,6.875,0,0,1,7.715-4.8,7.008,7.008,0,0,1,5.853,6.716c.051,1.66.009,3.324.009,5.026h7.1a2.494,2.494,0,0,0,.108-.468c.008-5.3.02-10.595,0-15.892a1.62,1.62,0,0,0-.422-1.029C2042.009,455.842,2037.463,451.279,2032.806,446.6Zm16.2,33.415c0,2.89,0,5.714,0,8.537,0,.766-.131,1.585-1.052,1.444-.391-.06-.921-.9-.942-1.406-.1-2.38-.045-4.766-.045-7.15v-1.477h-2.327v20.21h2.328c0-2.064,0-4.044,0-6.024,0-.72.142-1.4,1.019-1.4s1.02.673,1.019,1.4c-.006,2.012,0,4.023,0,6.007H2065.5a51.373,51.373,0,0,1-3.194-4.041,36.064,36.064,0,0,1-2.372-4.569c-1.234-2.68-2.257-5.466-3.616-8.079C2054.59,480.13,2052.977,479.46,2049.011,480.011Zm.077-2.263a1.642,1.642,0,0,0,.352.128,8.254,8.254,0,0,0,1.19.024c3.276-.335,5.534,1.231,7.053,3.943,1.031,1.842,1.837,3.809,2.756,5.714,1.32,2.736,2.5,5.554,4.021,8.174a8.264,8.264,0,0,0,6.462,4.375c2.573.227,5.182.048,7.83.048v-3.089c-1.9,0-3.708-.089-5.5.02a6.412,6.412,0,0,1-6.366-3.472c-1.213-2.141-2.157-4.434-3.238-6.651a82.792,82.792,0,0,0-3.837-7.674c-2.434-3.9-6.192-5.124-10.719-4.461Zm-6.536,22.468V479.943h-4.7v20.273Zm-14.866-.012V479.938h-4.639V500.2Zm.188-22.415h9.793c.026-.463.064-.812.062-1.16-.007-1.413.05-2.831-.059-4.237a4.924,4.924,0,0,0-9.757-.307A56.351,56.351,0,0,0,2027.875,477.789Zm-7.032,22.419V479.94h-2.206v20.268Zm14.868-5.174v-3.606h-5.846v3.606Zm-5.912-11.52h5.882v-3.54H2029.8Zm.041,2.186v3.586h5.843V485.7Zm5.879,11.481h-5.888v3.006h5.888Z" transform="translate(0 -6.318)" fill="#fff"/>
    <path id="Path_65" data-name="Path 65" d="M2177.111,449.3c-2.25,0-4.5.011-6.75,0-2.883-.019-4.98-1.413-5.747-3.791-.8-2.491.1-4.737,2.529-6.494a1.573,1.573,0,0,0,.543-1.04,8.878,8.878,0,0,1,16.1-4.867,3.033,3.033,0,0,0,1.768.841,7.789,7.789,0,0,1,6.515,7.019,7.6,7.6,0,0,1-5.351,7.906,14.049,14.049,0,0,1-3.522.413C2181.171,449.344,2179.14,449.3,2177.111,449.3Zm.016-2.018c2.383,0,4.765.019,7.148,0a5.7,5.7,0,1,0,.021-11.393,1.8,1.8,0,0,1-1.806-.985,6.794,6.794,0,0,0-12.718,3.96,1.46,1.46,0,0,1-1.077,1.686,3.415,3.415,0,0,0-2.282,3.985,3.513,3.513,0,0,0,3.7,2.75C2172.449,447.291,2174.788,447.281,2177.126,447.28Z" transform="translate(-111.245)" fill="#fff"/>
    <path id="Path_66" data-name="Path 66" d="M2071.038,503.628a4.461,4.461,0,0,1,4.409-4.5,4.432,4.432,0,1,1-4.409,4.5Zm6.845-.024a2.427,2.427,0,0,0-2.43-2.437,2.369,2.369,0,0,0-2.416,2.3,2.4,2.4,0,0,0,2.343,2.515A2.45,2.45,0,0,0,2077.884,503.6Z" transform="translate(-42.673 -51.276)" fill="#fff"/>
  </g>
</svg>
