<svg xmlns="http://www.w3.org/2000/svg" width="68.072" height="68.072" viewBox="0 0 68.072 68.072">
  <g id="target-3696" transform="translate(126.036 126.036)">
    <g id="Group_391" data-name="Group 391" transform="translate(-126.036 -126.036)">
      <path id="Path_1212" data-name="Path 1212" d="M68.072,32.523h-5.7A28.419,28.419,0,0,0,35.549,5.7V0H32.523V5.7A28.42,28.42,0,0,0,5.7,32.523H0v3.025H5.7A28.419,28.419,0,0,0,32.523,62.374v5.7h3.025v-5.7A28.418,28.418,0,0,0,62.374,35.549h5.7ZM35.549,59.341V53.735H32.523v5.607A25.387,25.387,0,0,1,8.731,35.549h5.607V32.523H8.731A25.387,25.387,0,0,1,32.523,8.731v5.607h3.025V8.731A25.387,25.387,0,0,1,59.341,32.523H53.735v3.025h5.607A25.387,25.387,0,0,1,35.549,59.341Z" fill="#fff"/>
      <path id="Path_1213" data-name="Path 1213" d="M97.2,107.866A10.669,10.669,0,1,1,107.866,97.2,10.681,10.681,0,0,1,97.2,107.866Zm0-18.313a7.644,7.644,0,1,0,7.644,7.644A7.652,7.652,0,0,0,97.2,89.553Z" transform="translate(-63.161 -63.161)" fill="#fff"/>
    </g>
  </g>
</svg>
