<svg xmlns="http://www.w3.org/2000/svg" width="58.239" height="69.784" viewBox="0 0 58.239 69.784">
  <g id="tree-5068" transform="translate(105.187 126.036)">
    <g id="Group_390" data-name="Group 390" transform="translate(-105.187 -126.036)">
      <path id="Path_1207" data-name="Path 1207" d="M122.162,123.492a1.551,1.551,0,0,1-1.551-1.551V75.82a1.551,1.551,0,1,1,3.1,0v46.122A1.551,1.551,0,0,1,122.162,123.492Z" transform="translate(-92.993 -53.708)" fill="#dd131a"/>
      <path id="Path_1208" data-name="Path 1208" d="M122.16,98.423a1.551,1.551,0,0,1-1.054-2.689L128.381,89a1.551,1.551,0,1,1,2.107,2.277l-7.275,6.729A1.543,1.543,0,0,1,122.16,98.423Z" transform="translate(-92.991 -64.066)" fill="#dd131a"/>
      <path id="Path_1209" data-name="Path 1209" d="M95.623,128.805a1.543,1.543,0,0,1-1.052-.413L84.41,119a1.551,1.551,0,1,1,2.106-2.276l10.161,9.4a1.55,1.55,0,0,1-1.054,2.688Z" transform="translate(-66.454 -84.108)" fill="#dd131a"/>
      <path id="Path_1210" data-name="Path 1210" d="M106.068,243.97H85.992a1.551,1.551,0,1,1,0-3.1h20.076a1.551,1.551,0,0,1,0,3.1Z" transform="translate(-66.836 -174.186)" fill="#dd131a"/>
      <path id="Path_1211" data-name="Path 1211" d="M68.641,55.065H31.3A10.443,10.443,0,0,1,25.832,35.72,16.935,16.935,0,0,1,33.02,17.958c-.022-.338-.033-.662-.033-.979a16.981,16.981,0,0,1,33.961,0c0,.316-.011.641-.033.979A16.929,16.929,0,0,1,74.105,35.72a10.443,10.443,0,0,1-5.464,19.345ZM49.969,3.1A13.816,13.816,0,0,0,36.192,18.59a1.55,1.55,0,0,1-.758,1.517,13.843,13.843,0,0,0-6.309,15.962,1.552,1.552,0,0,1-.847,1.858A7.343,7.343,0,0,0,31.3,51.964H68.641A7.343,7.343,0,0,0,71.66,37.927a1.552,1.552,0,0,1-.847-1.858A13.838,13.838,0,0,0,64.5,20.108a1.55,1.55,0,0,1-.758-1.517A13.816,13.816,0,0,0,49.969,3.1Z" transform="translate(-20.849)" fill="#dd131a"/>
    </g>
  </g>
</svg>
