<svg id="Group_387" data-name="Group 387" xmlns="http://www.w3.org/2000/svg" width="60.49" height="69.928" viewBox="0 0 60.49 69.928">
  <path id="Path_1189" data-name="Path 1189" d="M109.365,214.006H91.113A.777.777,0,0,1,90.37,213l.576-1.864a4.012,4.012,0,0,1,3.852-2.843h10.882a4.011,4.011,0,0,1,3.851,2.843l.575,1.864a.776.776,0,0,1-.741,1.006Zm-17.2-1.554h16.146l-.264-.858a2.467,2.467,0,0,0-2.367-1.747H94.8a2.464,2.464,0,0,0-2.367,1.747Z" transform="translate(-69.994 -150.51)" fill="#dd131a"/>
  <path id="Path_1190" data-name="Path 1190" d="M100.4,231.271H68.457v-3.027a4.964,4.964,0,0,1,4.959-4.959H95.445a4.964,4.964,0,0,1,4.959,4.959Zm-30.392-1.554H98.849v-1.473a3.409,3.409,0,0,0-3.4-3.4H73.416a3.409,3.409,0,0,0-3.4,3.4Z" transform="translate(-54.185 -161.343)" fill="#dd131a"/>
  <path id="Path_1191" data-name="Path 1191" d="M85.827,14.673H61.263a.777.777,0,1,1,0-1.554H85.827a.777.777,0,1,1,0,1.554Z" transform="translate(-48.425 -9.48)" fill="#dd131a"/>
  <path id="Path_1192" data-name="Path 1192" d="M166.486,14.673h-1.817a.777.777,0,1,1,0-1.554h1.817a.777.777,0,1,1,0,1.554Z" transform="translate(-123.145 -9.48)" fill="#dd131a"/>
  <path id="Path_1193" data-name="Path 1193" d="M49.157,59.336H45.351a.777.777,0,0,1-.777-.777l-.011-9.548a3.282,3.282,0,0,1-2.339-5.586A18.226,18.226,0,0,1,31.844,35.5,15.441,15.441,0,0,1,17.009,19.99V8.694a2.786,2.786,0,0,1,2.783-2.783h9.382V5.65a4.235,4.235,0,0,0-2.388-4.174A.776.776,0,0,1,27.123,0H67.386a.777.777,0,0,1,.337,1.477,4.235,4.235,0,0,0-2.388,4.174v.261h9.382A2.785,2.785,0,0,1,77.5,8.7v11.3A15.44,15.44,0,0,1,62.665,35.5a18.23,18.23,0,0,1-10.381,7.928,3.282,3.282,0,0,1-2.339,5.586h-.011v9.548A.776.776,0,0,1,49.157,59.336Zm-3.029-1.554H48.38V48.234a.776.776,0,0,1,.777-.777h.788a1.73,1.73,0,1,0,0-3.459h-.471a.777.777,0,0,1-.1-1.549,16.616,16.616,0,0,0,12.178-8.123.77.77,0,0,1,.726-.385c.017,0,.088.009.1.012A13.9,13.9,0,0,0,75.946,19.989V8.694a1.23,1.23,0,0,0-1.228-1.229H64.558a.777.777,0,0,1-.777-.777V5.65a6.208,6.208,0,0,1,1.336-4.1H29.393a6.212,6.212,0,0,1,1.335,4.1V6.688a.777.777,0,0,1-.777.777H19.792a1.23,1.23,0,0,0-1.229,1.229v11.3A13.9,13.9,0,0,0,32.114,33.953l.115-.011a.777.777,0,0,1,.726.386,16.615,16.615,0,0,0,12.178,8.123.777.777,0,0,1-.1,1.549h-.472a1.73,1.73,0,0,0,0,3.459h.788a.777.777,0,0,1,.777.777ZM63.964,31.308a.777.777,0,0,1-.751-.977,16.582,16.582,0,0,0,.568-4.262V10.7a.777.777,0,0,1,.777-.777h8.154a.777.777,0,0,1,.777.777v9.29a11.48,11.48,0,0,1-9.384,11.3A.731.731,0,0,1,63.964,31.308Zm1.371-19.831V26.068a17.906,17.906,0,0,1-.331,3.4,9.934,9.934,0,0,0,6.931-9.483V11.477ZM30.546,31.308a.718.718,0,0,1-.141-.013,11.48,11.48,0,0,1-9.384-11.3V10.7a.777.777,0,0,1,.777-.777h8.154a.777.777,0,0,1,.777.777V26.068A16.573,16.573,0,0,0,31.3,30.33a.778.778,0,0,1-.751.977ZM22.575,11.477V19.99a9.934,9.934,0,0,0,6.931,9.483,17.9,17.9,0,0,1-.331-3.4V11.477h-6.6Z" transform="translate(-17.009)" fill="#dd131a"/>
  <path id="Path_1202" data-name="Path 1202" d="M220.353,137.751h-.164a.777.777,0,0,1,0-1.554h.164a.777.777,0,1,1,0,1.554Z" transform="translate(-163.263 -98.414)" fill="#dd131a"/>
  <path id="Path_1203" data-name="Path 1203" d="M27.409,169.823h-.165a.777.777,0,1,1,0-1.554h.164a.777.777,0,0,1,0,1.554Z" transform="translate(-23.844 -121.589)" fill="#dd131a"/>
  <path id="Path_1204" data-name="Path 1204" d="M38.612,136.214h-.165a.777.777,0,0,1,0-1.554h.164a.777.777,0,0,1,0,1.554Z" transform="translate(-31.939 -97.303)" fill="#dd131a"/>
  <path id="Path_1205" data-name="Path 1205" d="M211.95,176.962h-.164a.777.777,0,1,1,0-1.554h.164a.777.777,0,1,1,0,1.554Z" transform="translate(-157.191 -126.748)" fill="#dd131a"/>
</svg>
